<svg width="77" height="60" viewBox="0 0 77 60" fill="none" xmlns="http://www.w3.org/2000/svg">
<g clip-path="url(#clip0_3_61)">
<path d="M36.2633 16.5017L32.0319 25.8208C37.6036 27.1796 41.7285 29.791 47.116 30.9178L40.6434 16.5017H36.2633Z" fill="#FDE5D6"/>
<path d="M38.5 0C15.7009 0 0 12.4122 0 29.6143C0 46.8164 15.7009 59.2286 38.5 59.2286C61.2991 59.2286 77 46.739 77 29.6143C77 12.4895 61.2991 0 38.5 0ZM69.0586 30.2948C65.7724 33.2774 61.3879 35.4934 56.8147 36.4147L60.0743 43.4095V44.1055H53.0382L49.7498 36.7814C41.5332 36.1164 36.6894 32.2766 29.7309 30.8913L23.7311 44.1055H16.9279V43.4095L22.9367 30.4693C17.5648 30.9487 12.5789 33.5955 8.62262 37.2697H7.94142V31.5519C12.3215 27.5795 18.6476 24.9636 24.876 24.9636C25.0846 24.9636 25.2843 24.9702 25.4884 24.9746L32.1162 10.7021H44.8372L54.4516 31.342C59.7348 30.7786 64.5121 28.1694 68.3774 24.5769H69.0586V30.2948Z" fill="#FDE5D6"/>
</g>
<defs>
<clipPath id="clip0_3_61">
<rect width="77" height="59.2308" fill="white"/>
</clipPath>
</defs>
</svg>
