<svg width="44" height="34" viewBox="0 0 44 34" fill="none" xmlns="http://www.w3.org/2000/svg">
<path d="M20.7219 9.47277L18.304 14.8224C21.4877 15.6024 23.8448 17.1015 26.9234 17.7483L23.2248 9.47277H20.7219Z" fill="#3E483F"/>
<path d="M22 0C8.97193 0 0 7.12519 0 17C0 26.8748 8.97193 34 22 34C35.0281 34 44 26.8304 44 17C44 7.16958 35.0281 0 22 0ZM39.4621 17.3906C37.5842 19.1028 35.0788 20.3749 32.4656 20.9038L34.3282 24.9191V25.3186H30.3075L28.4285 21.1143C23.7333 20.7325 20.9654 18.5283 16.9891 17.7331L13.5606 25.3186H9.6731V24.9191L13.1067 17.4908C10.037 17.766 7.18794 19.2854 4.92721 21.3946H4.53795V18.1123C7.04086 15.8319 10.6558 14.3303 14.2149 14.3303C14.334 14.3303 14.4482 14.3341 14.5648 14.3366L18.3521 6.14354H25.6212L31.1152 17.9918C34.1342 17.6684 36.864 16.1705 39.0728 14.1083H39.4621V17.3906Z" fill="#3E483F"/>
</svg>
