<svg width="1440" height="1060" viewBox="0 0 1440 1060" fill="none" xmlns="http://www.w3.org/2000/svg">
<path d="M2122.18 1060C2121.9 1043.27 2112.82 1032.83 2096.81 1015.73C2090.3 1008.8 2083.58 1001.65 2077.44 993.351L2074.36 989.204L2073.51 984.126C2069.36 959.24 2065.43 933.067 2061.64 907.68C2059.28 892.019 2056.99 876.501 2054.56 861.269L2053.35 853.618L2057.35 846.967C2061.43 840.174 2060.07 837.242 2059.42 836.026C2055.78 828.517 2040.77 820.722 2025.83 818.72C1967.79 808.923 1927.54 817.147 1902.38 843.678C1885.94 886.298 1846.56 876.358 1827.26 871.496C1819.47 869.565 1812.17 867.705 1806.1 867.562H1803.74L1801.45 866.919C1764.5 857.837 1744.05 829.447 1725.97 804.346C1713.39 786.897 1701.38 770.235 1685.23 761.582C1655.78 777.1 1616.1 793.763 1580.94 761.868C1577.01 758.793 1572.93 755.432 1568.71 751.928C1553.63 739.414 1535.12 724.039 1521.75 724.611C1487.58 744.634 1452.42 727.185 1426.47 714.385C1415.46 708.95 1405.1 703.801 1395.95 701.441L1392.94 700.654L1390.23 699.081C1366.71 684.993 1351.34 686.781 1333.54 705.589L1331.54 707.734L1329.04 709.236C1320.32 714.456 1313.39 724.968 1306.1 736.053C1292.73 756.29 1276.22 781.319 1241.26 783.608C1190.37 794.335 1163.78 751.714 1144.27 720.463C1138.33 710.952 1132.69 701.942 1127.11 695.22L1121.82 688.855L1122.18 680.631C1123.04 660.465 1113.81 646.02 1090.37 630.716L1087.15 628.642L1084.87 625.567C1071.14 607.189 1052.13 593.316 1031.9 578.656C1011.03 563.495 989.511 547.834 972.499 526.023C967.424 522.591 960.133 520.159 952.413 517.513C905.164 501.495 901.805 477.538 903.234 461.234C890.582 437.134 877.287 409.889 881.505 376.064C881.791 364.121 884.864 352.679 887.795 341.667C894.943 315.064 894.443 309.272 884.864 303.193L882.076 301.119C841.333 264.649 807.451 238.189 773.212 256.925L772.283 257.426C720.531 282.526 686.364 236.974 665.921 209.799C660.774 203.006 655.985 196.57 651.482 191.564L649.695 189.275C627.536 156.738 595.656 133.711 561.774 109.254C546.763 98.3843 531.252 87.2284 516.599 75.0715C486.077 73.3552 467.135 76.4302 456.27 94.022L454.697 96.5965L452.481 98.5988C418.814 129.063 387.077 100.601 371.852 86.8709C365.562 81.2215 359.128 75.429 354.196 73.2122L352.266 72.211L345.404 68.2064C325.461 56.407 302.802 43.1058 283.931 43.1058H283.002C271.565 42.6052 268.134 47.1105 257.841 66.7761C252.766 76.5017 247.048 87.443 238.184 96.811L234.968 100.244L230.607 102.031C222.459 105.321 216.311 113.902 209.163 123.914C199.371 137.573 187.219 154.592 165.275 160.242L162.916 160.885H160.485C139.756 161.6 126.961 152.805 119.885 145.439C104.731 129.563 101.729 106.107 102.229 83.1523C96.3678 81.9366 89.0768 82.6517 78.7837 83.9389C64.6306 85.6552 47.261 87.729 29.534 81.0069C16.2387 81.2215 4.37296 90.8755 -12.9252 106.251C-22.718 114.975 -32.7967 123.914 -44.5194 130.779C-52.3107 139.718 -54.5981 146.369 -54.0262 149.658C-53.4544 153.162 -48.5223 157.596 -41.0169 161.529L-29.6515 167.393L-29.3656 180.193C-28.7938 207.439 -41.0883 235.043 -62.1035 253.993C-81.9749 271.943 -106.85 280.024 -132.082 276.877C-136.228 276.233 -141.589 279.38 -145.95 284.314C-149.238 288.176 -151.025 291.895 -151.739 294.683C-140.589 299.117 -133.155 306.054 -129.652 315.493C-122.004 335.946 -136.514 354.396 -149.309 370.629C-153.741 376.207 -159.173 383.143 -160.603 386.647L-161.389 388.578L-162.533 390.294C-167.251 397.517 -169.324 406.814 -171.682 417.612C-172.54 421.616 -173.469 425.693 -174.47 429.697L-216 419.042C-215.071 415.538 -214.356 412.034 -213.57 408.458C-210.853 395.944 -207.78 381.856 -199.488 368.483C-195.628 360.117 -189.195 351.964 -183.048 344.098C-180.617 340.951 -177.186 336.661 -174.542 332.799L-180.046 331.726L-184.906 326.077C-197.701 311.274 -198.559 289.32 -187.122 268.725C-175.971 248.63 -152.812 230.18 -126.15 234.328C-114.069 235.829 -101.275 231.467 -90.8384 222.028C-81.7605 213.875 -75.6132 203.077 -73.2544 191.778C-89.0515 180.05 -94.5554 166.749 -96.2709 156.881C-98.4868 143.866 -96.4139 123.27 -73.6832 99.0279L-71.2529 96.4534L-68.1793 94.8087C-59.4587 90.0889 -50.6667 82.3657 -41.4457 74.0703C-22.0746 56.836 2.1571 35.3826 36.0386 38.243L39.7556 38.5291L43.1151 40.1023C51.3354 43.8925 61.6285 42.6052 73.6371 41.175C92.4364 38.9582 115.81 36.0977 137.612 53.5465L146.404 60.5546L145.618 71.782C143.973 95.5238 145.618 110.327 150.764 115.619C151.264 116.191 152.551 117.478 156.554 117.835C162.058 115.332 167.062 108.753 174.21 98.8133C182.501 87.2284 192.651 72.9977 209.235 64.5593C212.952 59.6965 216.24 53.475 219.671 46.8244C229.678 27.6593 244.832 -1.44587 284.217 0.0558765C314.596 0.1989 343.617 17.3617 366.991 31.0919L372.853 34.5244C383.289 39.5303 391.938 47.325 400.372 54.8337C405.519 59.482 416.241 69.0645 419.886 69.0645H419.958C419.958 69.0645 420.601 68.9215 421.816 68.0634C449.908 26.8727 499.587 30.5198 526.535 32.5221L533.54 33.0227L538.901 37.5994C553.84 50.4715 569.852 61.9849 586.792 74.2133C621.746 99.4569 657.915 125.559 684.22 163.674C689.652 169.824 694.942 176.904 700.088 183.769C724.963 216.879 736.257 226.676 753.126 218.738C815.814 184.985 871.926 234.256 909.453 267.867C945.336 291.966 935.615 328.365 929.182 352.608C926.68 361.904 924.393 370.629 924.321 377.565L924.107 380.426C921.033 403.023 931.684 423.333 943.049 444.858L947.409 453.153L946.48 460.018C945.265 468.743 945.122 469.672 966.137 476.752C977.431 480.542 990.226 484.904 1001.23 493.843L1003.31 495.488L1004.88 497.633C1018.25 515.583 1037.12 529.241 1057.06 543.758C1078 558.99 1099.66 574.723 1116.89 596.677C1147.91 617.844 1163.71 643.231 1164.99 673.909C1170.5 681.346 1175.64 689.57 1180.65 697.58C1201.45 730.832 1213.46 745.993 1233.47 741.273L1235.47 740.772H1237.55C1250.56 740.2 1257.2 732.048 1270.28 712.239C1279.01 699.081 1288.8 684.207 1304.31 673.981C1335.05 642.873 1370.43 638.368 1409.53 660.608C1421.89 664.184 1433.83 670.119 1445.41 675.84C1473.72 689.856 1488.51 695.434 1501.88 686.352L1505.17 684.135L1509.03 683.206C1543.41 675.053 1573.86 700.44 1596.09 718.89C1600.16 722.251 1604.1 725.54 1607.81 728.472L1609.31 729.688C1623.54 742.918 1639.84 737.411 1673.43 719.176L1681.65 714.671L1690.94 717.46C1724.4 728.758 1743.7 755.575 1760.71 779.246C1776.01 800.413 1789.23 818.863 1809.74 824.727C1819.61 825.299 1829.19 827.731 1837.62 829.876C1859.99 835.525 1860.14 835.168 1863.07 825.943L1864.43 821.724L1867.29 818.362C1902.31 777.815 1957.78 763.656 2032.19 776.171C2054.49 779.174 2085.73 791.832 2097.95 817.29C2104.6 831.092 2104.53 846.466 2097.95 861.412C2099.95 874.499 2101.95 887.8 2103.96 901.173C2107.46 924.486 2111.03 948.585 2114.82 971.54C2118.82 976.475 2123.33 981.194 2127.97 986.2C2145.06 1004.36 2164.43 1025.03 2165 1059.21L2122.11 1059.86L2122.18 1060Z" fill="#FDE5D6"/>
</svg>
