<svg width="1440" height="678" viewBox="0 0 1440 678" fill="none" xmlns="http://www.w3.org/2000/svg">
<path d="M1453.57 677.909C1453.39 667.212 1447.58 660.537 1437.34 649.611C1433.18 645.177 1428.88 640.605 1424.95 635.302L1422.99 632.651L1422.44 629.405C1419.79 613.496 1417.27 596.764 1414.85 580.535C1413.34 570.523 1411.88 560.603 1410.32 550.865L1409.55 545.974L1412.11 541.722C1414.71 537.379 1413.84 535.505 1413.43 534.728C1411.1 529.928 1401.5 524.945 1391.95 523.664C1354.82 517.401 1329.09 522.659 1312.99 539.619C1302.48 566.866 1277.29 560.511 1264.95 557.403C1259.96 556.168 1255.3 554.98 1251.42 554.888H1249.91L1248.44 554.477C1224.81 548.671 1211.73 530.522 1200.17 514.476C1192.12 503.321 1184.44 492.669 1174.11 487.138C1155.28 497.058 1129.9 507.71 1107.41 487.321C1104.9 485.355 1102.29 483.206 1099.59 480.966C1089.95 472.966 1078.11 463.137 1069.56 463.503C1047.71 476.303 1025.21 465.148 1008.62 456.965C1001.58 453.491 994.951 450.199 989.1 448.691L987.18 448.188L985.442 447.182C970.402 438.176 960.573 439.319 949.19 451.342L947.91 452.714L946.31 453.674C940.732 457.011 936.298 463.731 931.635 470.817C923.086 483.755 912.526 499.755 890.171 501.218C857.621 508.075 840.615 480.829 828.135 460.851C824.34 454.771 820.729 449.011 817.163 444.714L813.78 440.645L814.009 435.388C814.557 422.496 808.66 413.261 793.665 403.478L791.608 402.152L790.145 400.186C781.368 388.438 769.207 379.569 756.27 370.197C742.921 360.505 729.16 350.494 718.28 336.55C715.034 334.356 710.371 332.802 705.434 331.11C675.216 320.87 673.067 305.555 673.981 295.132C665.89 279.726 657.387 262.308 660.084 240.685C660.267 233.05 662.233 225.736 664.107 218.695C668.678 201.689 668.358 197.986 662.233 194.1L660.45 192.775C634.392 169.46 612.722 152.545 590.825 164.522L590.23 164.842C557.132 180.888 535.28 151.768 522.205 134.396C518.914 130.053 515.851 125.938 512.971 122.738L511.828 121.275C497.656 100.475 477.267 85.7542 455.598 70.1194C445.997 63.1706 436.077 56.039 426.705 48.2673C407.185 47.1702 395.07 49.1359 388.121 60.382L387.116 62.0277L385.699 63.3078C364.166 82.7827 343.869 64.5878 334.131 55.8104C330.108 52.1989 325.994 48.4959 322.839 47.0787L321.605 46.4387L317.216 43.8786C304.462 36.3355 289.97 27.8324 277.901 27.8324H277.307C269.992 27.5124 267.798 30.3925 261.215 42.9643C257.969 49.1816 254.312 56.1761 248.643 62.1649L246.586 64.3592L243.797 65.5021C238.586 67.605 234.654 73.0909 230.082 79.4911C223.819 88.2228 216.048 99.1031 202.013 102.715L200.504 103.126H198.95C185.693 103.583 177.509 97.9603 172.984 93.2515C163.292 83.1027 161.372 68.1079 161.692 53.4332C157.943 52.656 153.28 53.1132 146.697 53.9361C137.645 55.0332 126.536 56.359 115.199 52.0617C106.696 52.1989 99.1071 58.3705 88.0439 68.1994C81.7808 73.7767 75.3349 79.4911 67.8376 83.8798C62.8546 89.5943 61.3917 93.8458 61.7574 95.9488C62.1231 98.1888 65.2775 101.023 70.0776 103.538L77.3464 107.286L77.5293 115.469C77.895 132.887 70.0319 150.533 56.5915 162.648C43.8826 174.123 27.9735 179.288 11.8359 177.277C9.18438 176.865 5.75571 178.877 2.96705 182.031C0.864132 184.5 -0.278763 186.877 -0.73592 188.66C6.39572 191.494 11.1502 195.929 13.3902 201.963C18.2818 215.038 9.00151 226.833 0.818413 237.21C-2.01596 240.776 -5.49035 245.21 -6.40466 247.45L-6.90753 248.685L-7.63898 249.782C-10.6562 254.399 -11.982 260.342 -13.4906 267.245C-14.0392 269.805 -14.6335 272.411 -15.2735 274.971L-41.8343 268.16C-41.24 265.92 -40.7828 263.68 -40.28 261.394C-38.5428 253.393 -36.577 244.388 -31.274 235.839C-28.8053 230.49 -24.6909 225.278 -20.7594 220.25C-19.205 218.238 -17.0107 215.495 -15.3192 213.027L-18.8393 212.341L-21.948 208.729C-30.1311 199.266 -30.6797 185.231 -23.3652 172.065C-16.2335 159.219 -1.42165 147.425 15.6303 150.076C23.3562 151.036 31.5393 148.247 38.2138 142.213C44.0197 137.001 47.9513 130.098 49.4599 122.875C39.3567 115.378 35.8366 106.875 34.7394 100.566C33.3222 92.2458 34.648 79.0797 49.1856 63.5821L50.7399 61.9363L52.7057 60.8848C58.283 57.8676 63.906 52.9303 69.8033 47.6273C82.1923 36.6098 97.6899 22.8951 119.359 24.7238L121.736 24.9066L123.885 25.9124C129.142 28.3353 135.725 27.5124 143.406 26.5981C155.429 25.1809 170.378 23.3523 184.321 34.5069L189.944 38.987L189.441 46.1644C188.39 61.342 189.441 70.8052 192.733 74.1881C193.053 74.5538 193.876 75.3767 196.436 75.6053C199.956 74.0052 203.156 69.7994 207.727 63.4449C213.03 56.039 219.522 46.9416 230.128 41.5471C232.505 38.4385 234.608 34.4612 236.803 30.2096C243.203 17.9578 252.895 -0.648429 278.084 0.311599C297.513 0.403031 316.074 11.3748 331.023 20.1522L334.771 22.3465C341.446 25.5466 346.977 30.5296 352.372 35.3298C355.663 38.3013 362.521 44.4272 364.852 44.4272H364.898C364.898 44.4272 365.309 44.3358 366.086 43.7872C384.053 17.455 415.825 19.7865 433.06 21.0665L437.54 21.3865L440.969 24.3123C450.523 32.5411 460.764 39.9014 471.598 47.7187C493.953 63.8564 517.085 80.5426 533.909 104.909C537.383 108.841 540.766 113.366 544.058 117.755C559.967 138.921 567.19 145.185 577.979 140.11C618.071 118.532 653.958 150.03 677.959 171.517C700.908 186.923 694.691 210.192 690.576 225.69C688.976 231.633 687.513 237.21 687.468 241.645L687.33 243.473C685.365 257.919 692.176 270.903 699.445 284.663L702.234 289.966L701.639 294.355C700.862 299.932 700.771 300.526 714.211 305.052C721.434 307.475 729.617 310.264 736.658 315.978L737.983 317.03L738.989 318.401C747.538 329.876 759.607 338.607 772.362 347.888C785.756 357.625 799.608 367.683 810.626 381.717C830.466 395.249 840.569 411.478 841.392 431.09C844.912 435.845 848.204 441.102 851.404 446.222C864.707 467.48 872.387 477.172 885.188 474.154L886.468 473.834H887.794C896.114 473.469 900.365 468.257 908.731 455.594C914.309 447.182 920.572 437.673 930.492 431.136C950.15 411.25 972.779 408.37 997.785 422.587C1005.69 424.873 1013.33 428.667 1020.73 432.325C1038.84 441.285 1048.3 444.851 1056.85 439.045L1058.95 437.628L1061.42 437.033C1083.41 431.822 1102.89 448.051 1117.1 459.845C1119.71 461.994 1122.22 464.097 1124.6 465.971L1125.56 466.748C1134.66 475.206 1145.08 471.686 1166.57 460.028L1171.82 457.148L1177.77 458.931C1199.16 466.154 1211.51 483.298 1222.39 498.429C1232.17 511.961 1240.63 523.756 1253.75 527.505C1260.06 527.87 1266.18 529.425 1271.58 530.796C1285.89 534.408 1285.98 534.179 1287.85 528.282L1288.72 525.585L1290.55 523.436C1312.95 497.515 1348.42 488.463 1396.01 496.464C1410.28 498.384 1430.26 506.475 1438.07 522.75C1442.32 531.573 1442.28 541.402 1438.07 550.957C1439.35 559.323 1440.63 567.826 1441.91 576.375C1444.15 591.278 1446.44 606.684 1448.86 621.359C1451.42 624.513 1454.3 627.53 1457.27 630.731C1468.2 642.342 1480.59 655.554 1480.95 677.406L1453.52 677.818L1453.57 677.909Z" fill="white"/>
</svg>
